<svg xmlns="http://www.w3.org/2000/svg" width="132.9" height="74.362" viewBox="0 0 132.9 74.362">
  <g id="check-price" transform="translate(-0.4 -0.338)">
    <path id="Path_10" data-name="Path 10" d="M133.3,69.1H116.5l-.3-61.6A3.335,3.335,0,0,0,112.8,4H21a3.306,3.306,0,0,0-3.5,3.5l-.3,61.6H.4v3.6l.1.1A8.606,8.606,0,0,0,6,74.7H127.7a9.226,9.226,0,0,0,5.5-1.9l.1-.1ZM66.8,5.6a.43.43,0,0,1,.4.4c0,.2-.2.5-.4.5a.458.458,0,0,1-.4-.5A.366.366,0,0,1,66.8,5.6ZM21.3,8.3h90.9V65.4H21.3ZM75.7,69.6A1.367,1.367,0,0,1,74.3,71H58.9a1.367,1.367,0,0,1-1.4-1.4v-.4H75.7Zm50.8,1.5h-3.8a.2.2,0,0,1,0-.4h3.8a.2.2,0,1,1,0,.4Z" fill="#d5d5d5"/>
    <g id="Group_4" data-name="Group 4" transform="translate(0 -952.362)">
      <g id="Group_3" data-name="Group 3">
        <path id="Path_11" data-name="Path 11" d="M66.8,952.7a3.971,3.971,0,0,0-3.9,3.9,3.832,3.832,0,0,0,2.5,3.6v1.9c-5.7.4-10.8,3.7-14.5,8.7a34.891,34.891,0,0,0-6.4,20.7,34.4,34.4,0,0,0,.3,4.6l-1.7,2.4-2.4,3.4a1.28,1.28,0,0,0,.3,1.8,1.077,1.077,0,0,0,.8.2c7,0,13.6-.1,20.5-.1a4.136,4.136,0,0,0-.5,1.9,4.91,4.91,0,0,0,9.8,0,4.136,4.136,0,0,0-.5-1.9c6.9,0,13.5.1,20.5.1a1.324,1.324,0,0,0,1.3-1.3,2.353,2.353,0,0,0-.2-.8l-2.4-3.4L88.6,996a35.529,35.529,0,0,0,.3-4.6c0-8.1-2.4-15.4-6.4-20.7-3.7-5-8.8-8.3-14.6-8.7v-1.9a3.792,3.792,0,0,0,2.5-3.6,3.412,3.412,0,0,0-3.6-3.8Zm0,12c5.3,0,10.2,2.9,13.8,7.7a32.457,32.457,0,0,1,5.9,19.2,38.661,38.661,0,0,1-.3,4.8,1.345,1.345,0,0,0,.2.9l1.9,2.7.9,1.3c-7.5,0-14.7-.1-22.4-.1s-14.9.1-22.4.1l.9-1.3h0l1.9-2.7a1.02,1.02,0,0,0,.2-.9,38.662,38.662,0,0,1-.3-4.8A32.684,32.684,0,0,1,53,972.4c3.7-4.9,8.5-7.7,13.8-7.7Z" fill="#9aca3c"/>
      </g>
    </g>
    <g id="Group_10" data-name="Group 10">
      <g id="Group_9" data-name="Group 9">
        <g id="Group_6" data-name="Group 6">
          <g id="Group_5" data-name="Group 5">
            <path id="Path_12" data-name="Path 12" d="M60.4,36.1a6.109,6.109,0,0,0,.8,3,7.4,7.4,0,0,0,2,2.3,6.474,6.474,0,0,0,5.7.9,6.741,6.741,0,0,0,4.2-4.2,6.425,6.425,0,0,0-.9-5.7,7.4,7.4,0,0,0-2.3-2,6.583,6.583,0,0,0-3-.7h-.2a6.468,6.468,0,0,1-1.3-.4c.1,0,.2.1.3.1a4.129,4.129,0,0,1-1.1-.7c.1.1.2.1.3.2a4.741,4.741,0,0,1-1-1c.1.1.1.2.2.3a6.726,6.726,0,0,1-.7-1.1c0,.1.1.2.1.3a6.468,6.468,0,0,1-.4-1.3v.4a3.3,3.3,0,0,1,0-1.4v.4a6.468,6.468,0,0,1,.4-1.3c0,.1-.1.2-.1.3a4.129,4.129,0,0,1,.7-1.1c-.1.1-.1.2-.2.3a4.741,4.741,0,0,1,1-1c-.1.1-.2.1-.3.2a6.726,6.726,0,0,1,1.1-.7c-.1,0-.2.1-.3.1a6.468,6.468,0,0,1,1.3-.4h-.4a3.3,3.3,0,0,1,1.4,0h-.4a6.468,6.468,0,0,1,1.3.4c-.1,0-.2-.1-.3-.1a4.129,4.129,0,0,1,1.1.7c-.1-.1-.2-.1-.3-.2a4.741,4.741,0,0,1,1,1c-.1-.1-.1-.2-.2-.3a6.726,6.726,0,0,1,.7,1.1c0-.1-.1-.2-.1-.3a6.468,6.468,0,0,1,.4,1.3v.3a1.26,1.26,0,0,0,1.3,1.3,1.324,1.324,0,0,0,1.3-1.3,6.109,6.109,0,0,0-.8-3,7.4,7.4,0,0,0-2-2.3,6.474,6.474,0,0,0-5.7-.9,6.741,6.741,0,0,0-4.2,4.2,6.425,6.425,0,0,0,.9,5.7,7.4,7.4,0,0,0,2.3,2,6.583,6.583,0,0,0,3,.7h.2a6.468,6.468,0,0,1,1.3.4c-.1,0-.2-.1-.3-.1a4.129,4.129,0,0,1,1.1.7c-.1-.1-.2-.1-.3-.2a4.741,4.741,0,0,1,1,1c-.1-.1-.1-.2-.2-.3a6.726,6.726,0,0,1,.7,1.1c0-.1-.1-.2-.1-.3a6.468,6.468,0,0,1,.4,1.3v-.4a3.3,3.3,0,0,1,0,1.4v-.4a6.468,6.468,0,0,1-.4,1.3c0-.1.1-.2.1-.3a4.129,4.129,0,0,1-.7,1.1c.1-.1.1-.2.2-.3a4.741,4.741,0,0,1-1,1c.1-.1.2-.1.3-.2a6.726,6.726,0,0,1-1.1.7c.1,0,.2-.1.3-.1a6.468,6.468,0,0,1-1.3.4h.4a3.3,3.3,0,0,1-1.4,0h.4a6.468,6.468,0,0,1-1.3-.4c.1,0,.2.1.3.1a4.129,4.129,0,0,1-1.1-.7c.1.1.2.1.3.2a4.741,4.741,0,0,1-1-1c.1.1.1.2.2.3a6.726,6.726,0,0,1-.7-1.1c0,.1.1.2.1.3a6.468,6.468,0,0,1-.4-1.3v-.3a1.3,1.3,0,1,0-2.6,0Z"/>
          </g>
        </g>
        <g id="Group_8" data-name="Group 8">
          <g id="Group_7" data-name="Group 7">
            <path id="Path_13" data-name="Path 13" d="M68.2,20.6V17.1a1.261,1.261,0,0,0-1.3-1.3,1.324,1.324,0,0,0-1.3,1.3v3.5a1.3,1.3,0,0,0,2.6,0Z"/>
          </g>
        </g>
      </g>
    </g>
  </g>
</svg>
