<svg xmlns="http://www.w3.org/2000/svg" width="71.006" height="74" viewBox="0 0 71.006 74">
  <g id="pay" transform="translate(-3 -2.385)">
    <path id="Path_20" data-name="Path 20" d="M73.586,30.3,46.063,2.777a1.428,1.428,0,0,0-1.966,0L20.533,26.338H7.171A4.176,4.176,0,0,0,3,30.509V72.214a4.176,4.176,0,0,0,4.171,4.171H65.559a4.176,4.176,0,0,0,4.171-4.171V65.008a4.163,4.163,0,0,0,2.78-3.915V49.971a4.163,4.163,0,0,0-2.78-3.915V38.85a4.119,4.119,0,0,0-.6-2.127l4.46-4.46A1.388,1.388,0,0,0,73.586,30.3ZM65.559,73.6H7.171a1.394,1.394,0,0,1-1.39-1.39V30.509a1.392,1.392,0,0,1,1.39-1.39H17.753l-5.558,5.561H8.561v2.78h57a1.392,1.392,0,0,1,1.39,1.39V45.8H51.657a4.176,4.176,0,0,0-4.171,4.171V61.093a4.176,4.176,0,0,0,4.171,4.171H66.949v6.951A1.394,1.394,0,0,1,65.559,73.6ZM59.525,34.529l-.153.15H45.665a14.753,14.753,0,0,0-12.387-6.59,15.108,15.108,0,0,0-3.017.309L41.825,16.835a6.279,6.279,0,0,0,6.495,0l11.2,11.2A6.182,6.182,0,0,0,59.525,34.529Zm-34.874-.081a12.2,12.2,0,0,1,17.261,0c.07.07.114.161.181.231l-17.564,0C24.6,34.6,24.579,34.521,24.651,34.448ZM69.729,61.093a1.394,1.394,0,0,1-1.39,1.39H51.657a1.394,1.394,0,0,1-1.39-1.39V49.971a1.394,1.394,0,0,1,1.39-1.39H68.339a1.394,1.394,0,0,1,1.39,1.39Zm-2.753-26.15a4.141,4.141,0,0,0-1.418-.264h-2.8c0-.014.008-.025.008-.039a1.405,1.405,0,0,0-.406-.984,3.365,3.365,0,0,1,0-4.752,1.391,1.391,0,0,0,0-1.966L49.421,14a1.428,1.428,0,0,0-1.966,0A3.438,3.438,0,0,1,42.7,14a1.4,1.4,0,0,0-1.969,0L20.058,34.679H16.123L45.078,5.724,70.636,31.282Z" transform="translate(0 0)" fill="#d5d5d5"/>
    <path id="Path_21" data-name="Path 21" d="M73.372,30.1,46.063,2.777a1.428,1.428,0,0,0-1.966,0L20.533,26.338l-8.338,8.344c0-.3,9,0,9,0,5.71-.132,35.528-.126,45.218.158,1.362.04,2.692,1.892,2.825,1.824,1.035-.526,3.781-3.7,3.781-3.7C74.959,31.1,73.454,30.18,73.372,30.1Zm-55.619-.979Zm41.922,5.561s-2.315.1-5.766,0-8.344-.075-8.344-.075a13.552,13.552,0,0,0-1.688-2.124,14.9,14.9,0,0,0-10.6-4.39,15.108,15.108,0,0,0-3.017.309L41.825,16.835a6.279,6.279,0,0,0,6.495,0l11.2,11.2A6.454,6.454,0,0,0,59.675,34.679Zm-35.134,0a12.606,12.606,0,0,1,8.741-3.809,12.12,12.12,0,0,1,8.63,3.578C41.981,34.521,20.465,34.285,24.54,34.682Zm44.047-1.456a13.287,13.287,0,0,1-3.029,1.454h-2.8c0-.014.008-.025.008-.039a1.405,1.405,0,0,0-.406-.984,3.365,3.365,0,0,1,0-4.752,1.391,1.391,0,0,0,0-1.966L49.421,14a1.428,1.428,0,0,0-1.966,0A3.438,3.438,0,0,1,42.7,14a1.4,1.4,0,0,0-1.969,0L20.09,34.682l-3.856-.1L45.078,5.724,70.636,31.282Z" transform="translate(0 0)"/>
    <circle id="Ellipse_4" data-name="Ellipse 4" cx="3.637" cy="3.637" r="3.637" transform="translate(52.352 52.429)" fill="#9aca3c"/>
  </g>
</svg>
